<svg width="24" height="24" viewBox="0 0 24 24" fill="none" xmlns="http://www.w3.org/2000/svg">
<circle cx="12" cy="12" r="11.5" fill="white" stroke="#E1E1E1"/>
<g clip-path="url(#clip0_948_1110)">
<path d="M8.65945 13.2518L8.24175 14.8112L6.71505 14.8435C6.2588 13.9972 6 13.029 6 12.0001C6 11.0051 6.24197 10.0669 6.67087 9.24072H6.6712L8.03039 9.48991L8.6258 10.8409C8.50118 11.2042 8.43326 11.5942 8.43326 12.0001C8.4333 12.4405 8.51309 12.8625 8.65945 13.2518Z" fill="#FBBB00"/>
<path d="M17.8951 10.8789C17.964 11.2419 17.9999 11.6167 17.9999 11.9998C17.9999 12.4293 17.9548 12.8484 17.8687 13.2525C17.5766 14.6279 16.8135 15.8289 15.7562 16.6788L15.7559 16.6785L14.0439 16.5911L13.8016 15.0786C14.5031 14.6672 15.0514 14.0233 15.3402 13.2525H12.1318V10.8789H15.387H17.8951Z" fill="#518EF8"/>
<path d="M15.7557 16.6789L15.756 16.6792C14.7278 17.5057 13.4216 18.0002 11.9998 18.0002C9.71484 18.0002 7.72826 16.723 6.71484 14.8436L8.65924 13.252C9.16594 14.6043 10.4704 15.5669 11.9998 15.5669C12.6571 15.5669 13.273 15.3892 13.8014 15.079L15.7557 16.6789Z" fill="#28B446"/>
<path d="M15.8298 7.38131L13.8861 8.97262C13.3391 8.63077 12.6926 8.43328 12 8.43328C10.4361 8.43328 9.10716 9.44009 8.62584 10.8409L6.67123 9.24066H6.6709C7.66948 7.31538 9.68112 6 12 6C13.4558 6 14.7907 6.51858 15.8298 7.38131Z" fill="#F14336"/>
</g>
<defs>
<clipPath id="clip0_948_1110">
<rect width="12" height="12" fill="white" transform="translate(6 6)"/>
</clipPath>
</defs>
</svg>
